<svg width="1438" height="1438" viewBox="0 0 1438 1438" fill="none" xmlns="http://www.w3.org/2000/svg">
<g opacity="0.07">
<path d="M1312.47 312.985C1182.93 123.987 965.442 0 719 0C321.907 0 0 321.907 0 719C0 776.771 6.81372 832.95 19.6807 886.779L385.824 520.636C420.922 485.538 477.828 485.538 512.926 520.636L808.875 816.585L1312.47 312.985Z" fill="#8794BA"/>
<path d="M1397.93 481.734L872.426 1007.24C837.328 1042.34 780.422 1042.34 745.324 1007.24L449.375 711.29L91.1038 1069.56C214.1 1289.39 449.195 1438 719 1438C1116.09 1438 1438 1116.09 1438 719C1438 635.861 1423.89 556.017 1397.93 481.734Z" fill="#8794BA"/>
</g>
</svg>
