<svg width="660" height="660" viewBox="0 0 660 660" fill="none" xmlns="http://www.w3.org/2000/svg">
<g opacity="0.07">
<path d="M602.387 143.651C542.928 56.9063 443.11 0 330 0C147.746 0 0 147.746 0 330C0 356.515 3.1273 382.3 9.03288 407.006L177.082 238.957C193.191 222.848 219.309 222.848 235.418 238.957L371.25 374.789L602.387 143.651Z" fill="#8794BA"/>
<path d="M641.609 221.102L400.418 462.293C384.309 478.402 358.191 478.402 342.082 462.293L206.25 326.461L41.814 490.897C98.2657 591.793 206.168 660 330 660C512.254 660 660 512.254 660 330C660 291.841 653.523 255.196 641.609 221.102Z" fill="#8794BA"/>
</g>
</svg>
