<svg width="30" height="30" viewBox="0 0 30 30" fill="none" xmlns="http://www.w3.org/2000/svg">
<path d="M27.3812 6.5296C24.6786 2.58665 20.1414 0 15 0C6.71573 0 0 6.71572 0 15C0 16.2052 0.14215 17.3773 0.410585 18.5003L8.04917 10.8617C8.78141 10.1294 9.96859 10.1294 10.7008 10.8617L16.875 17.0358L27.3812 6.5296Z" fill="#8794BA"/>
<path d="M29.1641 10.0501L18.2008 21.0133C17.4686 21.7456 16.2814 21.7456 15.5492 21.0133L9.375 14.8392L1.90063 22.3135C4.46662 26.8997 9.37125 30 15 30C23.2843 30 30 23.2843 30 15C30 13.2655 29.7056 11.5998 29.1641 10.0501Z" fill="#8794BA"/>
</svg>
