<svg width="89" height="13" viewBox="0 0 89 13" fill="none" xmlns="http://www.w3.org/2000/svg">
<path d="M8.10632 9.79205H4.20172L3.51984 12.0001H0.475708L4.81055 0.180725H7.48938L11.8567 12.0001H8.79632L8.10632 9.79205ZM4.88361 7.59216H7.42444L6.14996 3.49274L4.88361 7.59216Z" fill="#8794BA"/>
<path d="M22.5964 12.0001H19.7633L15.5746 4.64545V12.0001H12.7253V0.180725H15.5746L19.7552 7.53534V0.180725H22.5964V12.0001Z" fill="#8794BA"/>
<path d="M31.2579 9.79205H27.3533L26.6714 12.0001H23.6273L27.9622 0.180725H30.641L35.0083 12.0001H31.9479L31.2579 9.79205ZM28.0352 7.59216H30.576L29.3016 3.49274L28.0352 7.59216Z" fill="#8794BA"/>
<path d="M38.7262 9.80829H43.6861V12.0001H35.8769V0.180725H38.7262V9.80829Z" fill="#8794BA"/>
<path d="M46.9413 5.3111L49.1168 0.180725H52.1934L48.3862 7.75452V12.0001H45.4963V7.75452L41.6973 0.180725H44.7576L46.9413 5.3111Z" fill="#8794BA"/>
<path d="M62.4785 2.38062H58.9311V12.0001H56.0818V2.38062H52.5993V0.180725H62.4785V2.38062Z" fill="#8794BA"/>
<path d="M66.7241 12.0001H63.8829V0.180725H66.7241V12.0001Z" fill="#8794BA"/>
<path d="M78.2674 7.99805C78.2295 8.82064 78.0076 9.54852 77.6017 10.1817C77.1959 10.8095 76.6249 11.2965 75.8889 11.6429C75.1583 11.9892 74.3222 12.1624 73.3805 12.1624C71.8274 12.1624 70.6043 11.6564 69.7114 10.6444C68.8184 9.63241 68.3719 8.20369 68.3719 6.35828V5.7738C68.3719 4.61568 68.5722 3.60368 68.9726 2.73779C69.3785 1.8665 69.9603 1.19543 70.7179 0.724609C71.4756 0.248372 72.3523 0.0102539 73.3481 0.0102539C74.7822 0.0102539 75.9349 0.389079 76.8062 1.14673C77.6775 1.89897 78.1727 2.93803 78.2917 4.26392H75.4506C75.4289 3.54415 75.2476 3.02732 74.9067 2.71344C74.5657 2.39956 74.0462 2.24261 73.3481 2.24261C72.6391 2.24261 72.1196 2.50779 71.7895 3.03815C71.4594 3.5685 71.2862 4.41545 71.27 5.57898V6.4151C71.27 7.67605 71.4269 8.57711 71.7408 9.11829C72.0601 9.65946 72.6067 9.93005 73.3805 9.93005C74.0354 9.93005 74.536 9.77582 74.8823 9.46735C75.2287 9.15887 75.4127 8.66911 75.4343 7.99805H78.2674Z" fill="#8794BA"/>
<path d="M85.7113 8.85852C85.7113 8.44181 85.5625 8.11711 85.2648 7.8844C84.9726 7.65169 84.4558 7.41087 83.7143 7.16193C82.9729 6.91298 82.3668 6.67216 81.896 6.43945C80.3645 5.68722 79.5987 4.65356 79.5987 3.3385C79.5987 2.68368 79.7881 2.10732 80.1669 1.60944C80.5512 1.10614 81.0923 0.716492 81.7905 0.440491C82.4886 0.159078 83.2733 0.0183716 84.1446 0.0183716C84.9942 0.0183716 85.7546 0.169902 86.4257 0.472961C87.1021 0.776021 87.6271 1.20896 88.0005 1.77179C88.3739 2.3292 88.5606 2.96779 88.5606 3.68756H85.7194C85.7194 3.20591 85.5706 2.8325 85.2729 2.56732C84.9807 2.30214 84.5829 2.16956 84.0796 2.16956C83.5709 2.16956 83.1678 2.2832 82.8701 2.5105C82.5779 2.73238 82.4318 3.0165 82.4318 3.36285C82.4318 3.66591 82.5941 3.94191 82.9188 4.19086C83.2435 4.43439 83.8145 4.68874 84.6316 4.95392C85.4488 5.21368 86.1199 5.4951 86.6448 5.79816C87.922 6.53416 88.5606 7.54887 88.5606 8.84229C88.5606 9.87594 88.171 10.6877 87.3917 11.2776C86.6124 11.8675 85.5435 12.1624 84.1852 12.1624C83.2273 12.1624 82.3587 11.9919 81.5794 11.651C80.8055 11.3046 80.221 10.8338 79.826 10.2385C79.4363 9.63782 79.2415 8.94781 79.2415 8.16852H82.0989C82.0989 8.8017 82.2613 9.26982 82.586 9.57288C82.9161 9.87052 83.4492 10.0193 84.1852 10.0193C84.656 10.0193 85.0267 9.91923 85.2973 9.71899C85.5733 9.51335 85.7113 9.22652 85.7113 8.85852Z" fill="#8794BA"/>
</svg>
